<svg version="1.1" id="Layer_1" xmlns="http://www.w3.org/2000/svg" xmlns:xlink="http://www.w3.org/1999/xlink" x="0px" y="0px"
	 width="100%" viewBox="0 0 1024 560" enable-background="new 0 0 1024 560" xml:space="preserve">
<path fill="#000000" opacity="1.000000" stroke="none" 
	d="
M722.971313,122.908325 
	C746.870361,109.218727 771.817322,104.543373 798.719421,110.058479 
	C822.442383,114.921860 842.033508,126.447586 856.407959,145.716736 
	C884.600647,183.509262 884.326965,228.920761 852.589722,265.241882 
	C843.480164,275.667175 832.272827,283.344391 820.085571,289.733917 
	C816.968384,291.368103 815.529358,290.458679 814.671021,287.308014 
	C812.271790,278.501282 808.208008,270.569824 802.068298,263.741058 
	C800.443359,261.933716 799.501709,259.832214 800.428894,257.316315 
	C803.628906,248.633255 803.682739,239.350967 805.505493,230.398132 
	C808.612000,215.140411 814.486816,210.237473 830.217529,210.802429 
	C831.197327,210.837631 832.228027,211.011826 833.065247,210.110840 
	C833.597168,208.789505 832.703735,207.941498 831.841125,207.186981 
	C827.707397,203.571533 823.658264,199.842636 819.334900,196.466690 
	C816.418640,194.189453 813.072632,192.613113 809.122070,194.044312 
	C805.207092,195.462646 803.909302,193.856598 803.438232,189.894531 
	C802.274780,180.109818 799.463074,170.981522 791.033020,164.661072 
	C789.201233,163.287659 789.314453,163.136658 785.642639,162.379150 
	C787.479065,168.463043 789.439941,174.178284 790.906982,180.017593 
	C792.721375,187.239410 795.379578,194.231705 795.341187,201.943970 
	C795.310608,208.094467 793.279907,213.038177 789.135254,217.176605 
	C782.661255,223.641022 775.537476,229.446487 769.702576,236.564331 
	C767.799194,238.886276 765.296631,238.189819 762.776001,237.584885 
	C743.910400,233.057220 725.165283,233.216690 706.603516,239.244492 
	C701.851074,240.787796 697.033813,242.316605 692.895386,245.133453 
	C689.502991,247.442551 687.728271,247.013016 686.226990,243.151566 
	C678.781372,224.001114 675.236023,204.529282 680.027100,184.057724 
	C686.124512,158.004745 700.149048,137.612000 722.971313,122.908325 
z"/>
<path fill="#000000" opacity="1.000000" stroke="none" 
	d="
M419.419861,254.217407 
	C436.102386,249.932495 452.458069,248.228790 469.208405,251.530579 
	C495.492157,256.711609 513.045654,277.172974 513.253723,303.882751 
	C513.440674,327.867920 513.224121,351.856171 513.380676,375.841766 
	C513.407837,380.013245 511.948181,381.384552 507.880890,381.296753 
	C498.390442,381.091766 488.892761,381.218323 479.398010,381.217224 
	C472.841522,381.216461 472.850830,381.212219 472.804413,374.443848 
	C472.795624,373.160309 473.202087,371.796906 472.052185,370.193756 
	C467.492950,374.039795 462.670380,377.476959 457.050140,379.543671 
	C438.894135,386.219971 421.258636,384.648041 404.638367,375.126495 
	C391.788391,367.764893 385.884155,348.688232 389.980591,332.624390 
	C393.285431,319.664825 402.351135,312.894012 414.069611,308.863556 
	C429.375427,303.599304 445.230194,304.353027 461.057373,305.285645 
	C463.802917,305.447418 467.261963,307.114197 469.063660,304.692749 
	C470.831696,302.316528 468.555420,299.297089 467.501221,296.764496 
	C463.717072,287.673553 455.902954,284.947571 446.969910,284.327637 
	C435.026825,283.498810 423.776764,286.117310 413.320984,291.860718 
	C410.157654,293.598328 408.448181,293.391815 406.673157,289.971924 
	C403.380219,283.627533 399.842834,277.373962 395.907776,271.412262 
	C393.529022,267.808411 394.269165,265.913910 397.684143,263.918854 
	C404.467590,259.955902 411.383698,256.351746 419.419861,254.217407 
M468.247803,344.453369 
	C471.035736,340.162842 469.305481,335.353790 469.760406,330.798279 
	C469.917328,329.226746 468.676147,328.386902 467.160065,328.386719 
	C458.192017,328.385773 449.137787,327.026642 440.294220,329.267975 
	C433.291962,331.042694 430.370605,334.678955 430.303619,340.567871 
	C430.231598,346.896851 433.559265,351.384552 439.952820,353.580811 
	C449.557556,356.880066 460.681824,353.472839 468.247803,344.453369 
z"/>
<path fill="#000000" opacity="1.000000" stroke="none" 
	d="
M743.740234,249.823486 
	C755.081665,251.097763 765.413452,254.210129 774.943726,259.584503 
	C795.767517,271.327576 805.015686,290.223511 806.073792,313.194733 
	C806.870911,330.500061 807.496216,327.176910 792.329956,327.329620 
	C768.018005,327.574402 743.702698,327.495789 719.388855,327.534180 
	C717.684387,327.536865 716.086731,327.729218 714.331726,329.184387 
	C716.012512,335.335144 719.875732,339.913727 725.025574,343.504181 
	C738.092102,352.614075 756.986267,351.934204 770.862244,341.360168 
	C774.648315,338.475067 776.410095,339.180939 779.365662,342.260956 
	C784.660095,347.778137 790.453064,352.831177 796.202148,357.891266 
	C798.816162,360.191956 798.977478,361.858368 796.349121,364.334839 
	C766.817139,392.160248 711.934875,390.033539 685.761169,359.058716 
	C657.181824,325.236816 667.819397,266.861053 717.713013,253.649414 
	C726.101562,251.428146 734.515564,249.473099 743.740234,249.823486 
M726.887512,285.265503 
	C721.070862,288.432617 717.161865,293.120056 715.046448,299.449036 
	C713.750549,303.326141 714.538147,305.009338 718.904114,304.966431 
	C732.553955,304.832275 746.205933,304.935638 759.856873,304.884155 
	C764.770508,304.865601 765.326904,303.941010 763.654602,299.147430 
	C758.489319,284.341187 743.607666,278.490814 726.887512,285.265503 
z"/>
<path fill="#000000" opacity="1.000000" stroke="none" 
	d="
M273.984039,253.154800 
	C264.320099,253.176834 255.147415,253.407242 245.989746,253.134140 
	C241.330109,252.995178 240.067184,254.671448 240.088455,259.204742 
	C240.267426,297.370270 240.221909,335.536804 240.247711,373.703064 
	C240.252701,381.084381 240.170212,381.183960 232.695206,381.211975 
	C222.362106,381.250702 212.020737,381.040039 201.699310,381.402863 
	C196.746536,381.576965 195.517838,379.760925 195.536362,375.074219 
	C195.687164,336.908539 195.613586,298.741943 195.619293,260.575653 
	C195.620392,253.267899 195.642792,253.237671 188.094666,253.226898 
	C177.094894,253.211182 166.090775,253.069763 155.097260,253.338943 
	C150.462708,253.452423 148.468506,252.188812 148.654663,247.198288 
	C148.977478,238.544281 148.814026,229.866989 148.660004,221.202911 
	C148.599579,217.805267 149.823257,216.508469 153.288940,216.431213 
	C196.447021,215.468979 239.611252,216.268463 282.769653,215.841980 
	C287.258606,215.797623 288.518280,217.509583 288.381042,221.756073 
	C288.106567,230.247726 288.087250,238.757797 288.310913,247.251114 
	C288.425873,251.616562 286.735748,253.375504 282.479950,253.150421 
	C279.821320,253.009811 277.148163,253.143997 273.984039,253.154800 
z"/>
<path fill="#000000" opacity="1.000000" stroke="none" 
	d="
M668.212830,252.092682 
	C670.892944,253.468231 669.497375,255.050735 668.907593,256.473022 
	C652.777039,295.375977 636.617432,334.266937 620.481445,373.167664 
	C617.143494,381.214905 617.177673,381.234680 608.588135,381.241180 
	C597.926575,381.249268 587.264648,381.201996 576.603638,381.279510 
	C573.828125,381.299683 572.016724,380.611755 570.855591,377.722443 
	C559.311768,348.997284 547.640381,320.323334 535.987122,291.642181 
	C531.537842,280.691498 527.040161,269.760498 522.570251,258.818207 
	C521.881592,257.132324 521.057861,255.475540 521.220276,253.528076 
	C522.851257,251.542389 525.158569,252.035141 527.241577,252.017395 
	C538.235718,251.923660 549.236206,252.111252 560.222656,251.792953 
	C564.869446,251.658340 566.867065,253.450134 568.426880,257.751709 
	C576.937500,281.221191 585.794250,304.565216 594.553528,327.944305 
	C595.069153,329.320587 595.773376,330.626190 596.413696,332.016510 
	C598.920227,331.382568 598.883728,329.219147 599.437378,327.679901 
	C607.887207,304.188599 617.526855,281.133575 625.284119,257.392273 
	C626.552490,253.510345 628.564575,251.759506 632.828064,251.850159 
	C644.482666,252.097946 656.145325,251.971786 668.212830,252.092682 
z"/>
<path fill="#000000" opacity="1.000000" stroke="none" 
	d="
M312.004517,381.269928 
	C307.675690,381.279968 303.839813,381.163666 300.017120,381.337402 
	C296.527100,381.496033 295.491608,380.098511 295.507324,376.613617 
	C295.646454,345.806580 295.647675,314.998688 295.598633,284.191162 
	C295.584625,275.371613 295.314087,266.551483 295.081543,257.733704 
	C294.972473,253.596466 296.595154,251.710083 300.983185,251.796951 
	C311.137451,251.997986 321.300568,251.986496 331.455566,251.805359 
	C335.794525,251.727951 337.560577,253.423706 337.230164,257.713654 
	C337.032776,260.276367 337.193939,262.866699 337.193939,266.708984 
	C343.123505,260.090759 349.061737,255.773315 356.225800,253.169464 
	C360.028839,251.787247 363.906921,251.200806 367.866394,250.595474 
	C378.240417,249.009506 378.184387,249.750397 378.166077,260.295441 
	C378.152771,267.955658 378.075470,275.617706 378.216797,283.275452 
	C378.288177,287.143158 376.803284,288.753174 372.863617,288.346527 
	C368.186188,287.863708 363.535889,288.435333 359.016052,289.678986 
	C346.447418,293.137390 338.939240,303.046356 338.640625,317.760498 
	C338.255554,336.736145 338.310150,355.725464 338.515076,374.705200 
	C338.569153,379.712860 337.047852,381.599365 331.983246,381.341797 
	C325.505432,381.012421 318.997955,381.267029 312.004517,381.269928 
z"/>
<path fill="#000000" opacity="1.000000" stroke="none" 
	d="
M579.705078,469.399170 
	C573.452148,470.257446 569.486877,468.301971 565.913513,463.216339 
	C559.510803,454.104004 552.101501,445.699615 545.133484,436.982941 
	C544.307617,435.949738 543.610291,434.813721 542.853333,433.725403 
	C542.353027,433.921753 541.852783,434.118134 541.352478,434.314514 
	C541.065613,439.132019 540.685242,443.946259 540.517273,448.767914 
	C540.337524,453.927704 540.253235,459.096008 540.327454,464.257721 
	C540.377808,467.754669 539.124695,469.300934 535.403259,469.461151 
	C521.556824,470.057343 521.576965,470.162415 521.593811,456.405365 
	C521.615051,439.078369 521.744995,421.749573 521.522583,404.425507 
	C521.461548,399.670593 523.076050,398.255585 527.773987,397.824707 
	C535.256287,397.138367 539.976562,399.631866 544.421204,405.871399 
	C551.022705,415.138733 559.022461,423.409882 566.489136,432.177826 
	C568.544189,430.303070 567.932617,428.546661 567.941895,426.979462 
	C567.987061,419.316193 567.953491,411.652405 567.942932,403.988800 
	C567.937927,400.409058 569.247253,398.356873 573.300171,398.610809 
	C576.780151,398.828827 580.304260,398.740448 583.783020,398.463013 
	C586.962280,398.209534 587.971313,399.695099 587.973022,402.534637 
	C587.985413,423.359863 587.990601,444.185211 588.058167,465.010284 
	C588.078979,471.422028 583.320068,468.905060 579.705078,469.399170 
z"/>
<path fill="#000000" opacity="1.000000" stroke="none" 
	d="
M655.149048,441.091614 
	C655.635498,446.108948 653.125000,447.232727 649.082336,447.147919 
	C640.587830,446.969696 632.088013,446.986053 623.590942,447.030243 
	C621.707825,447.040039 619.553162,446.400543 618.062683,448.307983 
	C621.228210,453.302490 627.160095,455.756012 632.576965,454.326874 
	C633.379395,454.115204 634.150208,453.780640 634.930298,453.488403 
	C643.094177,450.429657 645.979309,451.515198 650.268250,459.011139 
	C651.229919,460.691895 650.814941,461.860382 649.559814,462.942230 
	C639.127869,471.933990 618.858215,473.027222 607.579163,464.142273 
	C596.057861,455.066467 592.732727,438.820435 600.277039,426.499420 
	C606.584961,416.197632 619.656860,410.355438 631.248901,412.657166 
	C644.872070,415.362152 652.351379,423.272125 654.483154,437.213379 
	C654.659241,438.365112 654.903320,439.506500 655.149048,441.091614 
M630.928894,428.351257 
	C624.153442,426.279175 619.558594,428.223572 616.683899,434.904266 
	C623.287842,435.695953 629.563599,435.036652 635.983154,434.513885 
	C635.498901,431.189728 633.518494,429.957642 630.928894,428.351257 
z"/>
<path fill="#000000" opacity="1.000000" stroke="none" 
	d="
M695.263977,468.602234 
	C683.390381,472.250000 672.510498,469.417908 661.744751,465.498169 
	C660.202271,464.936554 658.952881,463.817841 659.587280,462.106293 
	C660.797791,458.840637 662.094849,455.561646 663.801208,452.539520 
	C665.174133,450.107880 667.347046,451.590179 669.094055,452.385834 
	C674.320374,454.765991 679.737000,456.172882 685.514526,455.851379 
	C687.149902,455.760406 689.175415,455.836761 689.454041,453.660858 
	C689.738892,451.436890 687.679321,451.030457 686.142944,450.624756 
	C681.323853,449.352081 676.493835,448.080536 671.607910,447.111511 
	C665.415955,445.883453 661.170776,442.561829 660.037109,436.283234 
	C658.856750,429.745941 659.790283,423.576935 665.551941,419.201202 
	C674.890503,412.109070 685.486938,411.638000 696.488525,413.571442 
	C697.466309,413.743225 698.404602,414.130554 699.368958,414.388977 
	C702.175537,415.141083 706.355896,414.280273 707.302795,417.433228 
	C708.528015,421.512817 705.710083,425.410736 704.099609,429.169220 
	C703.046143,431.627808 700.684814,430.665253 698.838257,429.932220 
	C693.806824,427.934998 688.637024,426.903564 683.219604,427.404114 
	C681.202148,427.590546 678.881531,427.849823 678.523132,430.266113 
	C678.147461,432.799164 680.662231,432.960114 682.282227,433.396759 
	C686.443909,434.518494 690.700073,435.285614 694.874512,436.364655 
	C702.005981,438.208038 708.172424,441.397522 709.244446,449.621246 
	C710.347961,458.087128 706.831970,463.205933 697.502380,467.742218 
	C696.906494,468.031952 696.263062,468.223785 695.263977,468.602234 
z"/>
<path fill="#000000" opacity="1.000000" stroke="none" 
	d="
M717.833984,442.030121 
	C717.780701,439.219940 717.751465,436.891418 717.688721,434.563843 
	C717.644104,432.908966 717.026184,431.717285 715.219360,431.335785 
	C708.603638,429.938751 711.693970,424.537415 711.018677,420.776550 
	C710.417969,417.430756 712.322449,415.992279 715.606506,415.813843 
	C718.996277,415.629669 718.656250,412.930359 718.722107,410.609406 
	C719.002197,400.741516 719.000732,400.738678 729.083191,400.819153 
	C730.579834,400.831085 732.076050,400.889160 733.572693,400.916779 
	C736.618042,400.972961 738.186523,402.420074 738.062744,405.565094 
	C738.003967,407.059326 738.170532,408.566345 738.055420,410.053680 
	C737.770203,413.739990 739.461670,415.081421 743.066895,415.015564 
	C745.585510,414.969543 749.010254,413.750244 750.356018,416.657410 
	C752.043640,420.303070 751.648315,424.511383 750.841858,428.407623 
	C750.381531,430.631836 747.950256,430.198425 746.179077,430.343140 
	C738.323120,430.985016 738.129028,431.159760 738.121277,438.897858 
	C738.118164,442.057373 738.044495,445.232239 738.314636,448.373291 
	C738.799377,454.011017 741.654724,455.705139 746.883301,453.706207 
	C747.492859,453.473145 748.296204,452.968994 748.730530,453.176086 
	C752.964478,455.194885 752.620911,459.770203 754.103394,463.295197 
	C755.074402,465.604309 753.512939,467.085419 751.400208,467.818207 
	C746.338989,469.573822 741.196472,470.753448 735.757935,470.125275 
	C725.822388,468.977692 719.446411,462.311584 718.234924,451.478638 
	C717.903198,448.512329 717.963379,445.502228 717.833984,442.030121 
z"/>
<path fill="#000000" opacity="1.000000" stroke="none" 
	d="
M810.508301,209.827469 
	C805.790894,210.155823 804.182678,207.493942 804.446594,203.755264 
	C804.629517,201.164780 810.381409,198.583038 813.055542,199.600571 
	C815.757080,200.628525 816.297302,202.710190 815.294678,205.216782 
	C814.464844,207.291321 812.800476,208.651062 810.508301,209.827469 
z"/>
</svg>