<svg version="1.1" id="Layer_1" xmlns="http://www.w3.org/2000/svg" xmlns:xlink="http://www.w3.org/1999/xlink" x="0px" y="0px"
	 width="100%" viewBox="0 0 1024 560" enable-background="new 0 0 1024 560" xml:space="preserve">
<path fill="#000000" opacity="1.000000" stroke="none" 
	d="
M457.381683,388.818115 
	C431.110840,389.135437 412.744537,376.826874 404.464600,353.166718 
	C398.254028,335.419830 398.472595,317.764221 408.306152,301.196106 
	C424.856384,273.311371 460.842834,267.148773 482.569885,288.483276 
	C483.141785,289.044800 483.855835,289.461548 484.775787,290.149353 
	C486.355377,287.814209 485.548370,285.448181 485.581238,283.282196 
	C485.623993,280.461517 486.524353,278.870453 489.598694,278.892517 
	C495.094666,278.932007 500.592224,278.892975 506.087769,278.803284 
	C508.979279,278.756134 510.331909,279.981995 510.407806,282.943512 
	C510.514374,287.100830 511.070312,291.251923 511.071960,295.405823 
	C511.082855,322.889465 511.008179,350.373138 510.934509,377.856720 
	C510.915802,384.836029 510.644836,385.069092 503.554779,385.099548 
	C499.890442,385.115265 496.225006,385.129395 492.561584,385.062683 
	C486.073822,384.944519 485.502136,384.268280 486.050812,377.638641 
	C486.131866,376.659515 486.251862,375.683624 486.478241,373.513275 
	C477.931366,381.744690 468.691223,386.895660 457.381683,388.818115 
M461.672394,363.286835 
	C467.244324,362.475281 472.163025,360.411438 476.221771,356.323273 
	C490.294403,342.148651 487.986206,316.341797 471.559357,304.952637 
	C460.849701,297.527435 445.512115,298.678009 436.105103,307.612305 
	C426.107971,317.107147 423.030914,333.087524 428.753967,345.789581 
	C434.451080,358.434113 445.456146,364.501373 461.672394,363.286835 
z"/>
<path fill="#000000" opacity="1.000000" stroke="none" 
	d="
M699.182007,288.131042 
	C723.975708,269.209900 754.655090,274.011108 772.084045,290.435944 
	C787.938599,305.377014 792.395081,324.561798 787.582825,345.449036 
	C782.754517,366.405731 769.921692,380.426697 748.746887,386.278992 
	C713.655396,395.977570 679.183594,370.052765 678.700806,333.561157 
	C678.459778,315.344330 684.433044,299.971405 699.182007,288.131042 
M758.566528,313.973480 
	C751.716858,303.811127 739.874084,298.564972 728.922424,300.841614 
	C711.887817,304.382843 701.929138,319.200684 704.423462,338.015472 
	C705.992065,349.846710 713.263855,357.802094 724.079285,361.832733 
	C735.191650,365.973969 745.852417,364.162842 754.669312,355.734436 
	C765.018311,345.841400 766.677368,328.673218 758.566528,313.973480 
z"/>
<path fill="#000000" opacity="1.000000" stroke="none" 
	d="
M324.506531,368.467499 
	C316.850006,378.513397 307.492523,385.171783 295.141632,387.328857 
	C272.404663,391.299866 252.419861,375.054016 251.722641,351.708466 
	C251.280380,336.899323 250.964874,322.082123 250.930923,307.267731 
	C250.920761,302.832062 249.893066,300.980774 245.068039,301.284851 
	C236.610825,301.817841 236.591705,301.563416 236.600159,293.097687 
	C236.603317,289.933533 236.727570,286.765503 236.609192,283.606293 
	C236.484192,280.270660 237.761795,278.864441 241.263947,278.799927 
	C251.659836,278.608398 251.652878,278.493805 251.655136,268.112579 
	C251.656357,262.450378 251.742920,256.787262 251.663712,251.126358 
	C251.619278,247.950089 252.983093,246.617950 256.165710,246.691849 
	C261.325562,246.811630 266.496033,246.875061 271.650879,246.675308 
	C275.483612,246.526794 276.481384,248.317520 276.473022,251.808136 
	C276.455872,258.962891 276.975525,266.122803 276.835358,273.271973 
	C276.747711,277.741425 278.513397,279.091400 282.766815,278.886139 
	C288.748810,278.597534 294.758453,278.925049 300.747711,278.728088 
	C304.351074,278.609589 305.990082,279.979736 305.938171,283.610138 
	C305.876251,287.938110 305.941528,292.269714 306.042755,296.597626 
	C306.122009,299.987427 304.572266,301.344666 301.191071,301.302216 
	C294.364990,301.216553 287.536041,301.364166 280.708252,301.414734 
	C278.390839,301.431915 276.148590,301.641388 276.450073,304.821594 
	C277.835815,319.440918 275.173157,334.110931 277.007019,348.718292 
	C277.964813,356.347534 282.922729,361.747437 290.097321,363.140381 
	C296.459534,364.375549 302.095795,361.439423 305.719818,354.183594 
	C307.686371,350.246368 309.453156,349.366119 313.243561,351.960907 
	C316.656006,354.296875 320.551971,355.920349 324.205566,357.911560 
	C329.457123,360.773590 329.529694,361.134796 326.178741,366.155273 
	C325.716858,366.847290 325.208984,367.508545 324.506531,368.467499 
z"/>
<path fill="#000000" opacity="1.000000" stroke="none" 
	d="
M614.341187,306.252014 
	C606.162781,329.706543 598.092468,352.786072 590.033630,375.869537 
	C586.829407,385.047577 586.840881,385.057587 577.093140,385.093475 
	C571.932068,385.112488 566.764709,384.954315 561.611816,385.162781 
	C557.891541,385.313263 555.903137,383.931366 554.645752,380.315552 
	C546.778748,357.691528 538.770081,335.116180 530.685120,312.568817 
	C527.428772,303.487488 523.855957,294.519745 520.440308,285.495361 
	C519.804565,283.815582 518.793701,282.225708 518.954102,280.444458 
	C520.232483,278.673096 521.983704,278.902283 523.610962,278.891296 
	C529.604248,278.850830 535.605042,279.036499 541.588745,278.790161 
	C545.247498,278.639526 546.951477,280.181580 548.034485,283.528778 
	C554.945923,304.889099 562.002502,326.202484 568.992554,347.537415 
	C569.707825,349.720337 570.227417,351.979401 572.152039,354.119965 
	C574.268555,351.515778 574.791077,348.577148 575.636841,345.840302 
	C581.873169,325.659210 588.165405,305.493835 594.153381,285.238739 
	C595.579468,280.414734 597.958313,278.451019 603.024414,278.808655 
	C608.489807,279.194519 614.006836,278.907593 619.499878,278.821198 
	C622.937256,278.767120 623.994873,279.931519 622.665344,283.373871 
	C619.788757,290.821564 617.175171,298.370819 614.341187,306.252014 
z"/>
<path fill="#000000" opacity="1.000000" stroke="none" 
	d="
M340.945648,197.822601 
	C363.232391,186.710785 385.615509,184.557312 407.999756,195.805222 
	C439.014526,211.389877 439.675476,245.041763 423.907562,267.252106 
	C422.949860,268.601135 421.930206,270.274323 420.010712,269.868347 
	C417.720245,269.383911 417.974182,267.166748 417.623718,265.414825 
	C416.774445,261.169495 417.018616,256.787903 415.775116,252.575928 
	C411.349457,237.585464 401.169678,227.746048 387.380554,221.512711 
	C352.456207,205.725220 318.114166,225.196259 307.602875,250.642914 
	C306.785797,252.620895 306.071136,255.776428 302.911316,254.560959 
	C299.832825,253.376770 300.736023,250.498291 301.368652,248.052841 
	C307.162903,225.654343 320.749542,209.359787 340.945648,197.822601 
z"/>
<path fill="#000000" opacity="1.000000" stroke="none" 
	d="
M364.363708,288.170227 
	C366.946228,288.756226 367.854553,286.584167 369.188904,285.326569 
	C375.613342,279.271667 383.375122,276.907837 391.962677,276.520142 
	C394.386871,276.410675 395.711639,277.027252 395.617157,279.832825 
	C395.393005,286.490692 395.323334,293.155823 395.321533,299.818085 
	C395.320740,302.784424 394.387634,303.791138 391.154480,303.576691 
	C374.802704,302.492035 365.081848,311.423859 364.979584,327.734222 
	C364.873047,344.725952 364.981079,361.722595 365.305817,378.711151 
	C365.398438,383.556824 363.656952,385.358795 358.955994,385.181427 
	C353.799133,384.986938 348.626678,385.080688 343.464478,385.199799 
	C340.150787,385.276245 338.626526,384.049805 338.637695,380.538086 
	C338.739838,348.384247 338.764862,316.230103 338.753143,284.076050 
	C338.751831,280.472290 340.333466,278.939850 343.885803,278.983307 
	C348.549042,279.040375 353.232178,279.146301 357.874146,278.797638 
	C362.550995,278.446381 364.900635,279.895538 364.149994,284.903656 
	C364.004578,285.874054 364.191345,286.894226 364.363708,288.170227 
z"/>
<path fill="#000000" opacity="1.000000" stroke="none" 
	d="
M635.749390,345.000000 
	C635.733643,324.702637 635.698425,304.905243 635.715149,285.107910 
	C635.720398,278.933807 636.068359,278.704712 642.238403,278.693207 
	C647.225952,278.683868 652.224487,278.713867 657.196716,278.393219 
	C660.572998,278.175507 661.452271,279.481995 661.529175,282.688141 
	C662.283142,314.122131 662.044678,345.561005 662.140625,376.997955 
	C662.165649,385.202911 662.109436,385.209106 653.693420,385.170441 
	C649.368042,385.150604 645.041687,385.028290 640.717896,385.094666 
	C637.114258,385.149994 635.692810,383.526642 635.725525,379.937134 
	C635.829956,368.458984 635.755371,356.979156 635.749390,345.000000 
z"/>
<path fill="#000000" opacity="1.000000" stroke="none" 
	d="
M638.896362,261.134583 
	C632.458069,254.653564 631.444336,248.489990 635.348450,241.112961 
	C638.723633,234.735413 645.963806,230.754211 652.157349,231.870239 
	C659.539185,233.200348 665.874939,239.631622 666.506104,247.141678 
	C667.145264,254.746552 662.867493,260.058746 656.961304,263.985870 
	C650.442749,268.320251 644.628662,265.543610 638.896362,261.134583 
z"/>
</svg>